<svg width="1789" height="740" viewBox="0 0 1789 740" fill="none" xmlns="http://www.w3.org/2000/svg">
<path d="M1150.69 685.344C1150.69 687.948 1148.52 690.064 1145.84 690.064C1143.17 690.064 1141 687.948 1141 685.344C1141 682.739 1143.17 680.624 1145.84 680.624C1148.52 680.624 1150.69 682.734 1150.69 685.344Z" stroke="#4D2C5E" stroke-opacity="0.1" stroke-width="2" stroke-miterlimit="10" stroke-linecap="round" stroke-linejoin="round"/>
<path d="M1197.68 726.28C1200.35 726.28 1202.52 724.167 1202.52 721.56C1202.52 718.953 1200.35 716.84 1197.68 716.84C1195 716.84 1192.84 718.953 1192.84 721.56C1192.84 724.167 1195 726.28 1197.68 726.28Z" stroke="#4D2C5E" stroke-opacity="0.1" stroke-width="2" stroke-miterlimit="10" stroke-linecap="round" stroke-linejoin="round"/>
<path d="M1179.44 711.856C1185.15 711.856 1189.77 707.349 1189.77 701.79C1189.77 696.23 1185.15 691.723 1179.44 691.723C1173.74 691.723 1169.11 696.23 1169.11 701.79C1169.11 707.349 1173.74 711.856 1179.44 711.856Z" stroke="#4D2C5E" stroke-opacity="0.1" stroke-width="2" stroke-miterlimit="10" stroke-linecap="round" stroke-linejoin="round"/>
<path d="M1197.44 701.79L1194 707.658L1192.17 714.192L1185.47 715.966L1179.44 719.329L1173.42 715.966L1166.71 714.192L1164.89 707.658L1161.44 701.79L1164.89 695.916L1166.71 689.383L1173.42 687.608L1179.44 684.245L1185.47 687.608L1192.17 689.383L1194 695.916L1197.44 701.79Z" stroke="#4D2C5E" stroke-opacity="0.1" stroke-width="2" stroke-miterlimit="10" stroke-linecap="round" stroke-linejoin="round"/>
<path d="M1192.84 721.56C1192.84 718.956 1195.01 716.84 1197.68 716.84C1199.12 716.84 1200.42 717.461 1201.31 718.439C1204.99 713.845 1207.2 708.07 1207.2 701.784C1207.2 686.844 1194.77 674.734 1179.44 674.734C1164.11 674.734 1151.68 686.844 1151.68 701.784C1151.68 716.725 1164.11 728.835 1179.44 728.835C1184.83 728.835 1189.85 727.335 1194.11 724.747C1193.33 723.906 1192.84 722.791 1192.84 721.56Z" stroke="#4D2C5E" stroke-opacity="0.1" stroke-width="2" stroke-miterlimit="10" stroke-linecap="round" stroke-linejoin="round"/>
<path d="M1179.44 665.184C1166.49 665.184 1155.07 671.574 1148.32 681.294C1149.73 682.119 1150.69 683.624 1150.69 685.349C1150.69 687.954 1148.52 690.07 1145.84 690.07C1145.18 690.07 1144.56 689.938 1143.99 689.707C1142.63 693.493 1141.89 697.553 1141.89 701.79C1141.89 722.005 1158.71 738.396 1179.45 738.396C1200.19 738.396 1217.01 722.005 1217.01 701.79C1217.01 681.575 1200.19 665.184 1179.44 665.184Z" stroke="#4D2C5E" stroke-opacity="0.1" stroke-width="2" stroke-miterlimit="10" stroke-linecap="round" stroke-linejoin="round"/>
<path d="M1291.84 77.7898L1268.54 70.0763C1266.07 69.2633 1264.76 66.6553 1265.59 64.2554C1266.43 61.8554 1269.1 60.5742 1271.56 61.3872L1294.86 69.1007C1297.33 69.9137 1298.64 72.5217 1297.81 74.9151C1296.97 77.3215 1294.3 78.6093 1291.84 77.7898Z" stroke="#4D2C5E" stroke-opacity="0.1" stroke-width="3" stroke-miterlimit="10"/>
<path d="M1288.78 86.583L1265.47 78.8695C1263.01 78.0565 1261.69 75.4485 1262.53 73.0551C1263.36 70.6552 1266.04 69.3739 1268.5 70.1869L1291.81 77.8939C1294.27 78.7069 1295.59 81.3149 1294.75 83.7148C1293.91 86.1147 1291.24 87.396 1288.78 86.583Z" stroke="#4D2C5E" stroke-opacity="0.1" stroke-width="3" stroke-miterlimit="10"/>
<path d="M1268.06 37.6678C1268.09 37.7458 1268.11 37.8174 1268.13 37.8954C1268.66 39.5149 1271.73 49.7779 1270.44 61.166L1295.45 69.2048C1301.37 59.3125 1310.11 52.8542 1311.52 51.8526C1311.58 51.8071 1311.65 51.7616 1311.71 51.716C1312.39 51.2413 1313.05 50.7339 1313.69 50.1941C1317.46 47.0268 1320.42 42.8578 1322.09 37.928C1327.01 23.4115 1318.92 7.75678 1304.02 2.96347C1289.12 -1.82984 1273.06 6.05279 1268.14 20.5693C1266.47 25.5057 1266.3 30.5722 1267.39 35.3004C1267.58 36.0939 1267.8 36.8873 1268.06 37.6678Z" stroke="#4D2C5E" stroke-opacity="0.1" stroke-width="3" stroke-miterlimit="10"/>
<path d="M1266.75 79.4028C1266.47 84.2156 1269.51 88.8007 1274.44 90.3877C1279.29 91.9486 1284.47 90.095 1287.22 86.1732L1266.75 79.4028Z" stroke="#4D2C5E" stroke-opacity="0.1" stroke-width="3" stroke-miterlimit="10"/>
<path d="M1278.27 63.553L1285.7 41.6156C1286.44 39.4563 1285.23 37.128 1283.01 36.4126C1280.8 35.6971 1278.41 36.8743 1277.67 39.0336C1276.94 41.1929 1278.15 43.5212 1280.36 44.2367L1289.28 47.1048" stroke="#4D2C5E" stroke-opacity="0.1" stroke-width="3" stroke-miterlimit="10"/>
<path d="M1288.07 66.7074L1295.5 44.77C1296.23 42.6108 1298.62 41.44 1300.84 42.149C1303.05 42.8644 1304.25 45.1927 1303.53 47.352C1302.79 49.5113 1300.4 50.682 1298.19 49.9731L1289.27 47.1049" stroke="#4D2C5E" stroke-opacity="0.1" stroke-width="3" stroke-miterlimit="10"/>
<path d="M1327.37 45.4854L1334.9 47.9113" stroke="#4D2C5E" stroke-opacity="0.1" stroke-width="3" stroke-miterlimit="10" stroke-linecap="round"/>
<path d="M1330.82 36.2434L1338.66 35.0923" stroke="#4D2C5E" stroke-opacity="0.1" stroke-width="3" stroke-miterlimit="10" stroke-linecap="round"/>
<path d="M1322.1 53.4135L1327.69 58.8897" stroke="#4D2C5E" stroke-opacity="0.1" stroke-width="3" stroke-miterlimit="10" stroke-linecap="round"/>
<path d="M1257.44 22.9952L1249.91 20.5758" stroke="#4D2C5E" stroke-opacity="0.1" stroke-width="3" stroke-miterlimit="10" stroke-linecap="round"/>
<path d="M1260.32 13.5647L1254.73 8.0885" stroke="#4D2C5E" stroke-opacity="0.1" stroke-width="3" stroke-miterlimit="10" stroke-linecap="round"/>
<path d="M1256.84 32.4193L1249 33.5704" stroke="#4D2C5E" stroke-opacity="0.1" stroke-width="3" stroke-miterlimit="10" stroke-linecap="round"/>
<path d="M1055.99 154.143L986.788 133.998C981.755 132.535 978.898 127.372 980.4 122.468L994.221 77.3637C995.723 72.4589 1001.02 69.6749 1006.05 71.1384L1075.26 91.2836C1080.29 92.7471 1083.15 97.9092 1081.65 102.814L1067.83 147.918C1066.32 152.817 1061.02 155.607 1055.99 154.143Z" stroke="#4D2C5E" stroke-opacity="0.1" stroke-width="4" stroke-miterlimit="10" stroke-linecap="round"/>
<path d="M982.031 117.134L1069.46 142.584" stroke="#4D2C5E" stroke-opacity="0.1" stroke-width="4" stroke-miterlimit="10" stroke-linecap="round"/>
<path d="M1025.96 137.251C1025.58 138.474 1024.26 139.172 1023 138.806C1021.75 138.44 1021.03 137.148 1021.41 135.924C1021.78 134.701 1023.11 134.004 1024.36 134.37C1025.62 134.735 1026.33 136.027 1025.96 137.251Z" fill="#4D2C5E" fill-opacity="0.5"/>
<path d="M1031.2 146.933L1011.6 141.227L1008.96 149.844L1028.56 155.549L1031.2 146.933Z" stroke="#4D2C5E" stroke-opacity="0.1" stroke-width="4" stroke-miterlimit="10" stroke-linecap="round"/>
<path d="M1001.69 148.221L1035.53 158.071" stroke="#4D2C5E" stroke-opacity="0.1" stroke-width="4" stroke-miterlimit="10" stroke-linecap="round"/>
<path d="M1728.72 83.0615C1750.41 83.0615 1768 74.9382 1768 64.9175C1768 54.8968 1750.41 46.7734 1728.72 46.7734C1707.03 46.7734 1689.44 54.8968 1689.44 64.9175C1689.44 74.9382 1707.03 83.0615 1728.72 83.0615Z" stroke="#4D2C5E" stroke-opacity="0.1" stroke-width="3" stroke-miterlimit="10" stroke-linecap="round" stroke-linejoin="round"/>
<path d="M1744.6 74.3752C1755.89 56.3194 1757.91 37.458 1749.13 32.2473C1740.35 27.0365 1724.08 37.4495 1712.8 55.5054C1701.52 73.5612 1699.49 92.4225 1708.28 97.6333C1717.06 102.844 1733.32 92.4311 1744.6 74.3752Z" stroke="#4D2C5E" stroke-opacity="0.1" stroke-width="3" stroke-miterlimit="10" stroke-linecap="round" stroke-linejoin="round"/>
<path d="M1749.12 97.6251C1757.9 92.4143 1755.88 73.553 1744.6 55.4972C1733.32 37.4413 1717.05 27.0283 1708.27 32.2391C1699.49 37.4499 1701.51 56.3112 1712.79 74.367C1724.07 92.4229 1740.34 102.836 1749.12 97.6251Z" stroke="#4D2C5E" stroke-opacity="0.1" stroke-width="3" stroke-miterlimit="10" stroke-linecap="round" stroke-linejoin="round"/>
<path d="M1728.72 69.7205C1731.44 69.7205 1733.65 67.5701 1733.65 64.9175C1733.65 62.2648 1731.44 60.1144 1728.72 60.1144C1726 60.1144 1723.79 62.2648 1723.79 64.9175C1723.79 67.5701 1726 69.7205 1728.72 69.7205Z" stroke="#4D2C5E" stroke-opacity="0.1" stroke-width="3" stroke-miterlimit="10" stroke-linecap="round" stroke-linejoin="round"/>
<path d="M1742.54 637.549L1710.1 644.846L1708.64 638.685C1708.31 637.257 1709.22 635.836 1710.68 635.502L1737.81 629.396C1739.28 629.07 1740.74 629.954 1741.08 631.382L1742.54 637.549Z" stroke="#4D2C5E" stroke-opacity="0.1" stroke-width="3" stroke-miterlimit="10" stroke-linecap="round"/>
<path d="M1731.88 604.418C1746.17 593.185 1748.42 572.785 1736.89 558.854C1725.36 544.922 1704.43 542.734 1690.13 553.967C1675.84 565.2 1673.59 585.6 1685.12 599.532C1696.65 613.463 1717.58 615.651 1731.88 604.418Z" stroke="#4D2C5E" stroke-opacity="0.1" stroke-width="3" stroke-miterlimit="10"/>
<path d="M1726.48 607.86L1695.47 550.535L1691.6 543.579C1671.38 553.962 1663.64 578.347 1674.29 598.047C1684.95 617.747 1709.97 625.295 1730.19 614.912L1726.4 607.908" stroke="#4D2C5E" stroke-opacity="0.1" stroke-width="3" stroke-miterlimit="10" stroke-linecap="round" stroke-linejoin="round"/>
<path d="M1702.3 563.096C1712.46 557.88 1719.16 550.831 1717.28 547.353C1715.4 543.875 1705.64 545.284 1695.49 550.5C1685.34 555.716 1678.63 562.765 1680.51 566.243C1682.4 569.721 1692.15 568.312 1702.3 563.096Z" stroke="#4D2C5E" stroke-opacity="0.1" stroke-width="3" stroke-miterlimit="10"/>
<path d="M1704.69 611.008C1711.85 612.355 1719.52 611.437 1726.48 607.86C1733.44 604.283 1738.55 598.639 1741.46 592.118C1734.3 590.771 1726.63 591.689 1719.67 595.266C1712.71 598.843 1707.6 604.487 1704.69 611.008Z" stroke="#4D2C5E" stroke-opacity="0.1" stroke-width="3" stroke-miterlimit="10"/>
<path d="M1726.51 607.825C1734.63 603.652 1734.27 587.437 1725.7 571.607C1717.14 555.777 1703.61 546.326 1695.49 550.498C1687.37 554.671 1687.73 570.886 1696.29 586.716C1704.86 602.546 1718.39 611.997 1726.51 607.825Z" stroke="#4D2C5E" stroke-opacity="0.1" stroke-width="3" stroke-miterlimit="10"/>
<path d="M1681.56 594.307L1740.39 564.088" stroke="#4D2C5E" stroke-opacity="0.1" stroke-width="3" stroke-miterlimit="10"/>
<path d="M1720.63 618.441L1724.07 632.395" stroke="#4D2C5E" stroke-opacity="0.1" stroke-width="3" stroke-miterlimit="10"/>
<path d="M1706.21 646.145L1747.56 636.482" stroke="#4D2C5E" stroke-opacity="0.1" stroke-width="3" stroke-miterlimit="10" stroke-linecap="round"/>
<path d="M1764.73 435.228L1782.04 418.365L1734.09 371.639L1716.78 388.502L1764.73 435.228Z" stroke="#4D2C5E" stroke-opacity="0.1" stroke-width="3" stroke-miterlimit="10" stroke-linecap="round" stroke-linejoin="round"/>
<path d="M1786.71 439.79L1782.03 418.362L1764.72 435.226L1786.71 439.79Z" stroke="#4D2C5E" stroke-opacity="0.1" stroke-width="3" stroke-miterlimit="10" stroke-linecap="round" stroke-linejoin="round"/>
<path d="M1784.53 429.792L1776.45 437.66" stroke="#4D2C5E" stroke-opacity="0.1" stroke-width="3" stroke-miterlimit="10" stroke-linecap="round" stroke-linejoin="round"/>
<path d="M1711.68 375.646L1720.88 366.679C1723.12 364.497 1726.75 364.497 1728.99 366.679L1734.07 371.637L1716.77 388.501L1711.68 383.543C1709.44 381.361 1709.44 377.82 1711.68 375.646Z" stroke="#4D2C5E" stroke-opacity="0.1" stroke-width="3" stroke-miterlimit="10" stroke-linecap="round" stroke-linejoin="round"/>
<path d="M1738.75 376.187L1721.45 393.059" stroke="#4D2C5E" stroke-opacity="0.1" stroke-width="3" stroke-miterlimit="10" stroke-linecap="round" stroke-linejoin="round"/>
<path d="M1773.38 426.794L1730.1 384.627" stroke="#4D2C5E" stroke-opacity="0.1" stroke-width="3" stroke-miterlimit="10" stroke-linecap="round" stroke-linejoin="round"/>
<path d="M412.021 639.074L408.848 646.148" stroke="#4D2C5E" stroke-opacity="0.1" stroke-width="4" stroke-miterlimit="10" stroke-linecap="round" stroke-linejoin="round"/>
<path d="M435.138 648.956L431.966 656.031" stroke="#4D2C5E" stroke-opacity="0.1" stroke-width="4" stroke-miterlimit="10" stroke-linecap="round" stroke-linejoin="round"/>
<path d="M458.263 658.834L455.09 665.908" stroke="#4D2C5E" stroke-opacity="0.1" stroke-width="4" stroke-miterlimit="10" stroke-linecap="round" stroke-linejoin="round"/>
<path d="M396.551 632.462L394.965 636.004" stroke="#4D2C5E" stroke-opacity="0.1" stroke-width="4" stroke-miterlimit="10" stroke-linecap="round" stroke-linejoin="round"/>
<path d="M404.287 635.773L402.701 639.305" stroke="#4D2C5E" stroke-opacity="0.1" stroke-width="4" stroke-miterlimit="10" stroke-linecap="round" stroke-linejoin="round"/>
<path d="M419.715 642.359L418.128 645.902" stroke="#4D2C5E" stroke-opacity="0.1" stroke-width="4" stroke-miterlimit="10" stroke-linecap="round" stroke-linejoin="round"/>
<path d="M427.445 645.665L425.865 649.202" stroke="#4D2C5E" stroke-opacity="0.1" stroke-width="4" stroke-miterlimit="10" stroke-linecap="round" stroke-linejoin="round"/>
<path d="M442.878 652.257L441.292 655.8" stroke="#4D2C5E" stroke-opacity="0.1" stroke-width="4" stroke-miterlimit="10" stroke-linecap="round" stroke-linejoin="round"/>
<path d="M466.377 662.3L464.796 665.837" stroke="#4D2C5E" stroke-opacity="0.1" stroke-width="4" stroke-miterlimit="10" stroke-linecap="round" stroke-linejoin="round"/>
<path d="M450.609 655.562L449.029 659.1" stroke="#4D2C5E" stroke-opacity="0.1" stroke-width="4" stroke-miterlimit="10" stroke-linecap="round" stroke-linejoin="round"/>
<path d="M453.375 718.868L376.919 623.992L476.709 666.798L453.375 718.868Z" stroke="#4D2C5E" stroke-opacity="0.1" stroke-width="4" stroke-miterlimit="10" stroke-linecap="round" stroke-linejoin="round"/>
<path d="M449.407 688.952L428.491 662.997L455.787 674.702L449.407 688.952Z" stroke="#4D2C5E" stroke-opacity="0.1" stroke-width="4" stroke-miterlimit="10" stroke-linecap="round" stroke-linejoin="round"/>
<path d="M639.774 22.9988L611 36.556L668.351 152.144L697.124 138.587L639.774 22.9988Z" stroke="#4D2C5E" stroke-opacity="0.1" stroke-width="4" stroke-miterlimit="10" stroke-linecap="round" stroke-linejoin="round"/>
<path d="M646.64 36.8692L632.26 43.6418" stroke="#4D2C5E" stroke-opacity="0.1" stroke-width="4" stroke-miterlimit="10" stroke-linecap="round" stroke-linejoin="round"/>
<path d="M659.93 63.648L645.54 70.4304" stroke="#4D2C5E" stroke-opacity="0.1" stroke-width="4" stroke-miterlimit="10" stroke-linecap="round" stroke-linejoin="round"/>
<path d="M673.22 90.4268L658.83 97.2092" stroke="#4D2C5E" stroke-opacity="0.1" stroke-width="4" stroke-miterlimit="10" stroke-linecap="round" stroke-linejoin="round"/>
<path d="M686.5 117.215L672.12 123.988" stroke="#4D2C5E" stroke-opacity="0.1" stroke-width="4" stroke-miterlimit="10" stroke-linecap="round" stroke-linejoin="round"/>
<path d="M651.04 45.737L643.85 49.1185" stroke="#4D2C5E" stroke-opacity="0.1" stroke-width="4" stroke-miterlimit="10" stroke-linecap="round" stroke-linejoin="round"/>
<path d="M655.48 54.6925L648.29 58.0837" stroke="#4D2C5E" stroke-opacity="0.1" stroke-width="4" stroke-miterlimit="10" stroke-linecap="round" stroke-linejoin="round"/>
<path d="M664.35 72.5646L657.16 75.946" stroke="#4D2C5E" stroke-opacity="0.1" stroke-width="4" stroke-miterlimit="10" stroke-linecap="round" stroke-linejoin="round"/>
<path d="M668.79 81.5201L661.6 84.9113" stroke="#4D2C5E" stroke-opacity="0.1" stroke-width="4" stroke-miterlimit="10" stroke-linecap="round" stroke-linejoin="round"/>
<path d="M677.66 99.3921L670.47 102.774" stroke="#4D2C5E" stroke-opacity="0.1" stroke-width="4" stroke-miterlimit="10" stroke-linecap="round" stroke-linejoin="round"/>
<path d="M682.11 108.348L674.91 111.739" stroke="#4D2C5E" stroke-opacity="0.1" stroke-width="4" stroke-miterlimit="10" stroke-linecap="round" stroke-linejoin="round"/>
<path d="M40.0008 608.304L8.77077 622.6C7.10077 623.369 5.11082 622.668 4.32082 621.04L2.32082 616.889C1.53082 615.262 2.2508 613.322 3.9208 612.553L35.1508 598.257C36.8208 597.487 38.8108 598.189 39.6008 599.816L41.6008 603.967C42.3908 605.605 41.6708 607.544 40.0008 608.304Z" stroke="#4D2C5E" stroke-opacity="0.1" stroke-width="4" stroke-miterlimit="10" stroke-linecap="round"/>
<path d="M52.1307 640.774L36.8508 609.766L12.1307 621.333L27.4108 652.341L37.0508 704.222C40.2208 710.664 48.1507 713.373 54.7507 710.284L81.4408 697.791C88.0508 694.702 90.8308 686.974 87.6608 680.542L52.1307 640.774Z" stroke="#4D2C5E" stroke-opacity="0.1" stroke-width="4" stroke-miterlimit="10" stroke-linecap="round"/>
<path d="M31.7507 675.738C31.7507 675.738 36.8508 667.689 50.4108 668.147C63.9708 668.605 66.2507 656.57 66.2507 656.57" stroke="#4D2C5E" stroke-opacity="0.1" stroke-width="4" stroke-miterlimit="10" stroke-linecap="round"/>
<path d="M83.48 106.765C95.3431 106.765 104.96 97.3939 104.96 85.8335C104.96 74.2731 95.3431 64.9016 83.48 64.9016C71.617 64.9016 62 74.2731 62 85.8335C62 97.3939 71.617 106.765 83.48 106.765Z" stroke="#4D2C5E" stroke-opacity="0.1" stroke-width="4" stroke-miterlimit="10" stroke-linecap="round" stroke-linejoin="round"/>
<path d="M113.59 127.444C118.334 127.444 122.18 123.696 122.18 119.073C122.18 114.45 118.334 110.702 113.59 110.702C108.846 110.702 105 114.45 105 119.073C105 123.696 108.846 127.444 113.59 127.444Z" stroke="#4D2C5E" stroke-opacity="0.1" stroke-width="4" stroke-miterlimit="10" stroke-linecap="round" stroke-linejoin="round"/>
</svg>
