<svg width="169" height="174" viewBox="0 0 169 174" fill="none" xmlns="http://www.w3.org/2000/svg">
<path fill-rule="evenodd" clip-rule="evenodd" d="M16.3868 67.1187C17.3668 68.0602 18.9153 68.0538 19.8756 67.1199C31.3889 56.295 43.5469 50.8219 55.9762 50.7483C68.0789 50.6782 80.3373 55.8748 92.3948 66.1069C95.0747 68.3406 99.2243 72.9837 102.883 78.4593C99.8659 82.721 97.8687 87.7761 96.8968 92.6512C95.4633 99.8515 96.578 106.485 99.031 109.78C100.39 111.605 102.136 112.728 104.171 113.203C106.777 113.807 110.31 113.298 114.347 109.955C119.919 105.321 121.24 98.6684 119.523 91.3307C118.617 87.4733 116.809 83.4208 114.565 79.5237C117.123 77.5313 120.315 76.3877 124.209 76.8259C132.453 77.6988 138.671 84.3442 143.111 92.1479C146.962 98.8989 151.612 108.867 150.446 116.762C150.051 119.445 148.863 121.746 151.143 123.952C154.635 127.366 157.795 123.868 158.343 120.183C159.515 112.267 156.569 102.708 153.674 95.3849C148.361 81.908 138.47 69.7601 125.201 68.023C118.981 67.2365 113.716 68.8245 109.462 71.8041C105.374 66.2819 100.973 61.7078 98.0898 59.4086C83.8246 48.259 69.5037 43.0336 55.6821 43.7446C41.8742 44.4479 28.5175 51.0067 16.349 63.7083C15.3967 64.6557 15.4068 66.1772 16.3868 67.1187ZM108.613 89.1686C109.489 91.4083 110.085 93.6074 110.268 95.6965C110.497 98.353 109.987 100.813 107.88 102.552C107.523 102.842 107.089 103.247 106.732 103.537C106.456 102.614 105.979 100.798 105.963 99.2973C105.944 95.9485 106.699 91.9675 108.24 88.2642C108.389 88.576 108.508 88.8684 108.613 89.1686Z" fill="#4D2C5E"/>
<path fill-rule="evenodd" clip-rule="evenodd" d="M106.358 103.696C106.114 103.563 105.881 103.478 105.9 103.665C105.93 103.9 106.092 103.864 106.358 103.696Z" fill="#4D2C5E"/>
<path fill-rule="evenodd" clip-rule="evenodd" d="M23.1678 62.2366C24.2823 59.7774 25.3577 57.1602 26.1212 54.664C27.2954 50.7687 27.7877 47.202 26.7873 44.5984C26.4723 43.3006 25.1304 42.4889 23.8141 42.7958C22.4897 43.0891 21.6742 44.3917 22.0029 45.6818C22.0747 46.3248 21.8493 46.9907 21.6366 47.7394C21.151 49.5043 20.0516 51.3437 18.8554 53.3274C17.3261 55.8575 15.4836 58.3835 13.9129 60.7211C12.4836 62.8355 11.293 64.798 10.5373 66.3548C9.34398 68.8043 9.29086 70.8661 9.57144 72.0753C9.6496 72.391 12.3559 77.0945 16.9255 75.2505C18.5591 74.5858 22.6062 72.6932 22.8061 72.599C25.2367 71.3075 29.7519 68.9726 34.0583 67.7617C35.4191 67.3759 36.7331 67.0344 37.9321 66.9912C37.9962 67.0991 38.0604 67.2069 38.1383 67.3071C39.2674 68.8674 41.4477 69.2447 43.0396 68.1719C43.9225 67.6587 45.0692 66.2063 45.3732 65.3345C45.9561 63.6409 45.2878 62.2716 43.6608 61.1344C41.4446 59.5904 38.2492 59.1352 34.6616 59.4035C30.8912 59.7024 26.6249 60.9807 23.1678 62.2366ZM19.2307 70.0913C18.9662 70.5993 18.8776 70.9727 19.2389 71.0577C19.6437 71.1543 19.3707 70.4803 19.2307 70.0913Z" fill="#4D2C5E"/>
</svg>
