<svg width="1520" height="838" viewBox="0 0 1520 838" fill="none" xmlns="http://www.w3.org/2000/svg">
<path d="M977.736 776.88C977.736 779.832 975.892 782.229 973.622 782.229C971.352 782.229 969.508 779.832 969.508 776.88C969.508 773.929 971.352 771.531 973.622 771.531C975.892 771.531 977.736 773.922 977.736 776.88Z" stroke="#4D2C5E" stroke-opacity="0.1" stroke-width="2" stroke-miterlimit="10" stroke-linecap="round" stroke-linejoin="round"/>
<path d="M1017.65 823.27C1019.93 823.27 1021.77 820.875 1021.77 817.921C1021.77 814.967 1019.93 812.572 1017.65 812.572C1015.38 812.572 1013.54 814.967 1013.54 817.921C1013.54 820.875 1015.38 823.27 1017.65 823.27Z" stroke="#4D2C5E" stroke-opacity="0.1" stroke-width="2" stroke-miterlimit="10" stroke-linecap="round" stroke-linejoin="round"/>
<path d="M1002.16 806.925C1007.01 806.925 1010.94 801.817 1010.94 795.517C1010.94 789.217 1007.01 784.109 1002.16 784.109C997.318 784.109 993.389 789.217 993.389 795.517C993.389 801.817 997.318 806.925 1002.16 806.925Z" stroke="#4D2C5E" stroke-opacity="0.1" stroke-width="2" stroke-miterlimit="10" stroke-linecap="round" stroke-linejoin="round"/>
<path d="M1017.45 795.517L1014.53 802.167L1012.97 809.571L1007.28 811.582L1002.16 815.393L997.043 811.582L991.348 809.571L989.801 802.167L986.87 795.517L989.801 788.86L991.348 781.457L997.043 779.445L1002.16 775.635L1007.28 779.445L1012.97 781.457L1014.53 788.86L1017.45 795.517Z" stroke="#4D2C5E" stroke-opacity="0.1" stroke-width="2" stroke-miterlimit="10" stroke-linecap="round" stroke-linejoin="round"/>
<path d="M1013.54 817.921C1013.54 814.97 1015.38 812.572 1017.65 812.572C1018.88 812.572 1019.98 813.276 1020.73 814.384C1023.87 809.179 1025.74 802.634 1025.74 795.511C1025.74 778.58 1015.18 764.856 1002.16 764.856C989.136 764.856 978.579 778.58 978.579 795.511C978.579 812.441 989.136 826.165 1002.16 826.165C1006.74 826.165 1011.01 824.465 1014.62 821.533C1013.96 820.58 1013.54 819.316 1013.54 817.921Z" stroke="#4D2C5E" stroke-opacity="0.1" stroke-width="2" stroke-miterlimit="10" stroke-linecap="round" stroke-linejoin="round"/>
<path d="M1002.16 754.034C991.162 754.034 981.458 761.276 975.725 772.291C976.927 773.225 977.736 774.931 977.736 776.886C977.736 779.838 975.892 782.235 973.622 782.235C973.061 782.235 972.53 782.086 972.046 781.824C970.892 786.114 970.26 790.716 970.26 795.517C970.26 818.425 984.547 837 1002.17 837C1019.79 837 1034.08 818.425 1034.08 795.517C1034.08 772.608 1019.78 754.034 1002.16 754.034Z" stroke="#4D2C5E" stroke-opacity="0.1" stroke-width="2" stroke-miterlimit="10" stroke-linecap="round" stroke-linejoin="round"/>
<path d="M1097.64 88.3852L1077.84 79.644C1075.75 78.7228 1074.63 75.7673 1075.34 73.0476C1076.05 70.328 1078.32 68.8761 1080.41 69.7974L1100.21 78.5385C1102.3 79.4598 1103.41 82.4153 1102.71 85.1275C1102 87.8545 1099.73 89.3138 1097.64 88.3852Z" stroke="#4D2C5E" stroke-opacity="0.1" stroke-width="3" stroke-miterlimit="10"/>
<path d="M1095.04 98.3499L1075.24 89.6087C1073.15 88.6875 1072.03 85.732 1072.74 83.0197C1073.45 80.3001 1075.72 78.8481 1077.81 79.7694L1097.61 88.5032C1099.7 89.4245 1100.82 92.38 1100.11 95.0996C1099.39 97.8192 1097.13 99.2712 1095.04 98.3499Z" stroke="#4D2C5E" stroke-opacity="0.1" stroke-width="3" stroke-miterlimit="10"/>
<path d="M1077.44 42.918C1077.46 43.0064 1077.48 43.0875 1077.5 43.176C1077.94 45.0112 1080.55 56.6414 1079.46 69.5468L1100.7 78.6565C1105.73 67.4463 1113.15 60.1276 1114.35 58.9926C1114.41 58.941 1114.46 58.8894 1114.51 58.8378C1115.09 58.2998 1115.65 57.7249 1116.2 57.1131C1119.4 53.5238 1121.91 48.7995 1123.33 43.2128C1127.51 26.7624 1120.64 9.02213 1107.98 3.59024C1095.33 -1.84165 1081.68 7.09113 1077.51 23.5416C1076.08 29.1356 1075.94 34.8771 1076.87 40.2353C1077.03 41.1344 1077.22 42.0336 1077.44 42.918Z" stroke="#4D2C5E" stroke-opacity="0.1" stroke-width="3" stroke-miterlimit="10"/>
<path d="M1076.32 90.2131C1076.08 95.6671 1078.67 100.863 1082.85 102.661C1086.98 104.43 1091.37 102.33 1093.71 97.8855L1076.32 90.2131Z" stroke="#4D2C5E" stroke-opacity="0.1" stroke-width="3" stroke-miterlimit="10"/>
<path d="M1086.11 72.2517L1092.42 47.3918C1093.05 44.9449 1092.02 42.3063 1090.14 41.4956C1088.25 40.6848 1086.23 42.0189 1085.6 44.4658C1084.98 46.9127 1086 49.5513 1087.89 50.362L1095.46 53.6123" stroke="#4D2C5E" stroke-opacity="0.1" stroke-width="3" stroke-miterlimit="10"/>
<path d="M1094.43 75.8263L1100.74 50.9664C1101.37 48.5195 1103.4 47.1928 1105.28 47.9962C1107.16 48.8069 1108.18 51.4455 1107.56 53.8924C1106.94 56.3393 1104.91 57.666 1103.03 56.8626L1095.45 53.6123" stroke="#4D2C5E" stroke-opacity="0.1" stroke-width="3" stroke-miterlimit="10"/>
<path d="M1127.81 51.777L1134.21 54.5261" stroke="#4D2C5E" stroke-opacity="0.1" stroke-width="3" stroke-miterlimit="10" stroke-linecap="round"/>
<path d="M1130.75 41.3039L1137.41 39.9994" stroke="#4D2C5E" stroke-opacity="0.1" stroke-width="3" stroke-miterlimit="10" stroke-linecap="round"/>
<path d="M1123.34 60.7614L1128.09 66.9672" stroke="#4D2C5E" stroke-opacity="0.1" stroke-width="3" stroke-miterlimit="10" stroke-linecap="round"/>
<path d="M1068.42 26.2908L1062.02 23.549" stroke="#4D2C5E" stroke-opacity="0.1" stroke-width="3" stroke-miterlimit="10" stroke-linecap="round"/>
<path d="M1070.86 15.6038L1066.11 9.39807" stroke="#4D2C5E" stroke-opacity="0.1" stroke-width="3" stroke-miterlimit="10" stroke-linecap="round"/>
<path d="M1067.9 36.9702L1061.25 38.2747" stroke="#4D2C5E" stroke-opacity="0.1" stroke-width="3" stroke-miterlimit="10" stroke-linecap="round"/>
<path d="M897.3 174.911L838.515 152.082C834.239 150.423 831.813 144.573 833.088 139.015L844.828 87.9024C846.104 82.3441 850.604 79.1892 854.879 80.8476L913.664 103.677C917.939 105.335 920.366 111.185 919.09 116.743L907.35 167.856C906.07 173.408 901.57 176.569 897.3 174.911Z" stroke="#4D2C5E" stroke-opacity="0.1" stroke-width="4" stroke-miterlimit="10" stroke-linecap="round"/>
<path d="M834.473 132.971L908.735 161.812" stroke="#4D2C5E" stroke-opacity="0.1" stroke-width="4" stroke-miterlimit="10" stroke-linecap="round"/>
<path d="M871.787 155.768C871.468 157.154 870.342 157.944 869.275 157.53C868.209 157.115 867.601 155.651 867.92 154.265C868.239 152.878 869.365 152.088 870.431 152.503C871.498 152.917 872.106 154.381 871.787 155.768Z" fill="#4D2C5E" fill-opacity="0.5"/>
<path d="M876.238 166.739L859.589 160.274L857.346 170.038L873.995 176.504L876.238 166.739Z" stroke="#4D2C5E" stroke-opacity="0.1" stroke-width="4" stroke-miterlimit="10" stroke-linecap="round"/>
<path d="M851.172 168.199L879.914 179.361" stroke="#4D2C5E" stroke-opacity="0.1" stroke-width="4" stroke-miterlimit="10" stroke-linecap="round"/>
<path d="M1468.74 94.3592C1487.17 94.3592 1502.1 85.1536 1502.1 73.7979C1502.1 62.4422 1487.17 53.2366 1468.74 53.2366C1450.31 53.2366 1435.37 62.4422 1435.37 73.7979C1435.37 85.1536 1450.31 94.3592 1468.74 94.3592Z" stroke="#4D2C5E" stroke-opacity="0.1" stroke-width="3" stroke-miterlimit="10" stroke-linecap="round" stroke-linejoin="round"/>
<path d="M1482.23 84.5157C1491.81 64.0544 1493.53 42.6803 1486.07 36.7753C1478.61 30.8703 1464.8 42.6706 1455.21 63.1319C1445.63 83.5933 1443.91 104.967 1451.37 110.872C1458.83 116.777 1472.65 104.977 1482.23 84.5157Z" stroke="#4D2C5E" stroke-opacity="0.1" stroke-width="3" stroke-miterlimit="10" stroke-linecap="round" stroke-linejoin="round"/>
<path d="M1486.07 110.863C1493.53 104.958 1491.81 83.584 1482.22 63.1227C1472.64 42.6614 1458.83 30.8611 1451.37 36.7661C1443.91 42.671 1445.63 64.0451 1455.21 84.5064C1464.79 104.968 1478.61 116.768 1486.07 110.863Z" stroke="#4D2C5E" stroke-opacity="0.1" stroke-width="3" stroke-miterlimit="10" stroke-linecap="round" stroke-linejoin="round"/>
<path d="M1468.74 79.2408C1471.05 79.2408 1472.92 76.804 1472.92 73.7979C1472.92 70.7919 1471.05 68.355 1468.74 68.355C1466.43 68.355 1464.55 70.7919 1464.55 73.7979C1464.55 76.804 1466.43 79.2408 1468.74 79.2408Z" stroke="#4D2C5E" stroke-opacity="0.1" stroke-width="3" stroke-miterlimit="10" stroke-linecap="round" stroke-linejoin="round"/>
<path d="M1480.48 722.718L1452.92 730.987L1451.69 724.005C1451.4 722.387 1452.17 720.776 1453.42 720.398L1476.46 713.478C1477.71 713.109 1478.95 714.11 1479.24 715.729L1480.48 722.718Z" stroke="#4D2C5E" stroke-opacity="0.1" stroke-width="3" stroke-miterlimit="10" stroke-linecap="round"/>
<path d="M1471.42 685.173C1483.56 672.443 1485.47 649.326 1475.68 633.538C1465.89 617.751 1448.11 615.272 1435.96 628.001C1423.82 640.73 1421.91 663.848 1431.7 679.636C1441.49 695.423 1459.28 697.902 1471.42 685.173Z" stroke="#4D2C5E" stroke-opacity="0.1" stroke-width="3" stroke-miterlimit="10"/>
<path d="M1466.84 689.073L1440.49 624.111L1437.21 616.228C1420.03 627.995 1413.45 655.629 1422.5 677.954C1431.56 700.278 1452.81 708.832 1469.98 697.065L1466.77 689.127" stroke="#4D2C5E" stroke-opacity="0.1" stroke-width="3" stroke-miterlimit="10" stroke-linecap="round" stroke-linejoin="round"/>
<path d="M1446.3 638.346C1454.92 632.435 1460.62 624.447 1459.02 620.505C1457.42 616.564 1449.14 618.16 1440.51 624.072C1431.89 629.983 1426.19 637.97 1427.79 641.912C1429.39 645.854 1437.68 644.257 1446.3 638.346Z" stroke="#4D2C5E" stroke-opacity="0.1" stroke-width="3" stroke-miterlimit="10"/>
<path d="M1448.33 692.641C1454.41 694.167 1460.93 693.127 1466.84 689.073C1472.75 685.02 1477.09 678.624 1479.56 671.234C1473.48 669.708 1466.96 670.748 1461.05 674.802C1455.14 678.855 1450.8 685.251 1448.33 692.641Z" stroke="#4D2C5E" stroke-opacity="0.1" stroke-width="3" stroke-miterlimit="10"/>
<path d="M1466.86 689.033C1473.76 684.305 1473.45 665.93 1466.17 647.99C1458.9 630.051 1447.41 619.341 1440.51 624.07C1433.61 628.798 1433.92 647.173 1441.2 665.113C1448.47 683.052 1459.96 693.762 1466.86 689.033Z" stroke="#4D2C5E" stroke-opacity="0.1" stroke-width="3" stroke-miterlimit="10"/>
<path d="M1428.68 673.715L1478.65 639.47" stroke="#4D2C5E" stroke-opacity="0.1" stroke-width="3" stroke-miterlimit="10"/>
<path d="M1461.87 701.064L1464.79 716.877" stroke="#4D2C5E" stroke-opacity="0.1" stroke-width="3" stroke-miterlimit="10"/>
<path d="M1449.62 732.458L1484.74 721.508" stroke="#4D2C5E" stroke-opacity="0.1" stroke-width="3" stroke-miterlimit="10" stroke-linecap="round"/>
<path d="M1499.33 493.443L1514.03 474.333L1473.3 421.382L1458.6 440.491L1499.33 493.443Z" stroke="#4D2C5E" stroke-opacity="0.1" stroke-width="3" stroke-miterlimit="10" stroke-linecap="round" stroke-linejoin="round"/>
<path d="M1518 498.613L1514.02 474.329L1499.32 493.44L1518 498.613Z" stroke="#4D2C5E" stroke-opacity="0.1" stroke-width="3" stroke-miterlimit="10" stroke-linecap="round" stroke-linejoin="round"/>
<path d="M1516.14 487.283L1509.28 496.199" stroke="#4D2C5E" stroke-opacity="0.1" stroke-width="3" stroke-miterlimit="10" stroke-linecap="round" stroke-linejoin="round"/>
<path d="M1454.26 425.922L1462.08 415.762C1463.98 413.289 1467.06 413.289 1468.96 415.762L1473.29 421.38L1458.59 440.491L1454.26 434.872C1452.36 432.399 1452.36 428.387 1454.26 425.922Z" stroke="#4D2C5E" stroke-opacity="0.1" stroke-width="3" stroke-miterlimit="10" stroke-linecap="round" stroke-linejoin="round"/>
<path d="M1477.26 426.537L1462.56 445.655" stroke="#4D2C5E" stroke-opacity="0.1" stroke-width="3" stroke-miterlimit="10" stroke-linecap="round" stroke-linejoin="round"/>
<path d="M1506.67 483.885L1469.91 436.1" stroke="#4D2C5E" stroke-opacity="0.1" stroke-width="3" stroke-miterlimit="10" stroke-linecap="round" stroke-linejoin="round"/>
<path d="M350.306 724.445L347.572 732.462" stroke="#4D2C5E" stroke-opacity="0.1" stroke-width="4" stroke-miterlimit="10" stroke-linecap="round" stroke-linejoin="round"/>
<path d="M369.944 735.645L367.209 743.662" stroke="#4D2C5E" stroke-opacity="0.1" stroke-width="4" stroke-miterlimit="10" stroke-linecap="round" stroke-linejoin="round"/>
<path d="M389.586 746.838L386.852 754.855" stroke="#4D2C5E" stroke-opacity="0.1" stroke-width="4" stroke-miterlimit="10" stroke-linecap="round" stroke-linejoin="round"/>
<path d="M337.156 716.952L335.789 720.967" stroke="#4D2C5E" stroke-opacity="0.1" stroke-width="4" stroke-miterlimit="10" stroke-linecap="round" stroke-linejoin="round"/>
<path d="M343.727 720.705L342.361 724.707" stroke="#4D2C5E" stroke-opacity="0.1" stroke-width="4" stroke-miterlimit="10" stroke-linecap="round" stroke-linejoin="round"/>
<path d="M356.832 728.169L355.465 732.183" stroke="#4D2C5E" stroke-opacity="0.1" stroke-width="4" stroke-miterlimit="10" stroke-linecap="round" stroke-linejoin="round"/>
<path d="M363.398 731.915L362.036 735.924" stroke="#4D2C5E" stroke-opacity="0.1" stroke-width="4" stroke-miterlimit="10" stroke-linecap="round" stroke-linejoin="round"/>
<path d="M376.508 739.385L375.141 743.4" stroke="#4D2C5E" stroke-opacity="0.1" stroke-width="4" stroke-miterlimit="10" stroke-linecap="round" stroke-linejoin="round"/>
<path d="M396.468 750.766L395.106 754.775" stroke="#4D2C5E" stroke-opacity="0.1" stroke-width="4" stroke-miterlimit="10" stroke-linecap="round" stroke-linejoin="round"/>
<path d="M383.074 743.131L381.712 747.14" stroke="#4D2C5E" stroke-opacity="0.1" stroke-width="4" stroke-miterlimit="10" stroke-linecap="round" stroke-linejoin="round"/>
<path d="M385.084 814.87L320.502 707.72L405.303 755.541L385.084 814.87Z" stroke="#4D2C5E" stroke-opacity="0.1" stroke-width="4" stroke-miterlimit="10" stroke-linecap="round" stroke-linejoin="round"/>
<path d="M381.953 780.969L364.286 751.656L387.481 764.732L381.953 780.969Z" stroke="#4D2C5E" stroke-opacity="0.1" stroke-width="4" stroke-miterlimit="10" stroke-linecap="round" stroke-linejoin="round"/>
<path d="M543.748 26.2947L519.307 41.658L568.023 172.645L592.464 157.282L543.748 26.2947Z" stroke="#4D2C5E" stroke-opacity="0.1" stroke-width="4" stroke-miterlimit="10" stroke-linecap="round" stroke-linejoin="round"/>
<path d="M549.58 42.0129L537.365 49.6879" stroke="#4D2C5E" stroke-opacity="0.1" stroke-width="4" stroke-miterlimit="10" stroke-linecap="round" stroke-linejoin="round"/>
<path d="M560.869 72.3594L548.646 80.0454" stroke="#4D2C5E" stroke-opacity="0.1" stroke-width="4" stroke-miterlimit="10" stroke-linecap="round" stroke-linejoin="round"/>
<path d="M572.158 102.706L559.935 110.392" stroke="#4D2C5E" stroke-opacity="0.1" stroke-width="4" stroke-miterlimit="10" stroke-linecap="round" stroke-linejoin="round"/>
<path d="M583.439 133.063L571.224 140.738" stroke="#4D2C5E" stroke-opacity="0.1" stroke-width="4" stroke-miterlimit="10" stroke-linecap="round" stroke-linejoin="round"/>
<path d="M553.318 52.0622L547.21 55.8941" stroke="#4D2C5E" stroke-opacity="0.1" stroke-width="4" stroke-miterlimit="10" stroke-linecap="round" stroke-linejoin="round"/>
<path d="M557.09 62.2108L550.982 66.0537" stroke="#4D2C5E" stroke-opacity="0.1" stroke-width="4" stroke-miterlimit="10" stroke-linecap="round" stroke-linejoin="round"/>
<path d="M564.624 82.4638L558.517 86.2958" stroke="#4D2C5E" stroke-opacity="0.1" stroke-width="4" stroke-miterlimit="10" stroke-linecap="round" stroke-linejoin="round"/>
<path d="M568.396 92.6124L562.288 96.4554" stroke="#4D2C5E" stroke-opacity="0.1" stroke-width="4" stroke-miterlimit="10" stroke-linecap="round" stroke-linejoin="round"/>
<path d="M575.93 112.865L569.823 116.697" stroke="#4D2C5E" stroke-opacity="0.1" stroke-width="4" stroke-miterlimit="10" stroke-linecap="round" stroke-linejoin="round"/>
<path d="M579.71 123.014L573.594 126.857" stroke="#4D2C5E" stroke-opacity="0.1" stroke-width="4" stroke-miterlimit="10" stroke-linecap="round" stroke-linejoin="round"/>
<path d="M34.2792 689.576L7.75134 705.777C6.33278 706.649 4.64244 705.854 3.97139 704.01L2.27252 699.305C1.60146 697.461 2.21304 695.263 3.63159 694.391L30.1595 678.191C31.578 677.318 33.2685 678.114 33.9395 679.958L35.6384 684.662C36.3094 686.517 35.6978 688.715 34.2792 689.576Z" stroke="#4D2C5E" stroke-opacity="0.1" stroke-width="4" stroke-miterlimit="10" stroke-linecap="round"/>
<path d="M44.5829 726.372L31.6036 691.233L10.6055 704.341L23.5849 739.48L31.7734 798.273C34.4662 805.573 41.2021 808.643 46.8084 805.142L69.4799 790.985C75.0947 787.484 77.4561 778.727 74.7634 771.439L44.5829 726.372Z" stroke="#4D2C5E" stroke-opacity="0.1" stroke-width="4" stroke-miterlimit="10" stroke-linecap="round"/>
<path d="M27.2714 765.994C27.2714 765.994 31.6035 756.873 43.1219 757.392C54.6402 757.911 56.5769 744.273 56.5769 744.273" stroke="#4D2C5E" stroke-opacity="0.1" stroke-width="4" stroke-miterlimit="10" stroke-linecap="round"/>
<path d="M71.2122 121.221C81.2892 121.221 89.4581 110.601 89.4581 97.5006C89.4581 84.4001 81.2892 73.78 71.2122 73.78C61.1353 73.78 52.9663 84.4001 52.9663 97.5006C52.9663 110.601 61.1353 121.221 71.2122 121.221Z" stroke="#4D2C5E" stroke-opacity="0.1" stroke-width="4" stroke-miterlimit="10" stroke-linecap="round" stroke-linejoin="round"/>
<path d="M96.7886 144.655C100.818 144.655 104.085 140.407 104.085 135.168C104.085 129.93 100.818 125.682 96.7886 125.682C92.7588 125.682 89.4919 129.93 89.4919 135.168C89.4919 140.407 92.7588 144.655 96.7886 144.655Z" stroke="#4D2C5E" stroke-opacity="0.1" stroke-width="4" stroke-miterlimit="10" stroke-linecap="round" stroke-linejoin="round"/>
</svg>
